<svg xmlns="http://www.w3.org/2000/svg" xmlns:xlink="http://www.w3.org/1999/xlink" id="lg" x="0px" y="0px" viewBox="0 0 1080 399" style="enable-background:new 0 0 1080 399;" xml:space="preserve"><style type="text/css">	.st0{display:none;fill:#1A4332;}	.st1{display:none;fill:#1C7F52;}	.st2{fill:#1A4332;}	.st3{fill:#1C7F52;}</style><rect x="159.1" y="-61.6" class="st0" width="69.6" height="42.2"></rect><rect x="250.3" y="-61.6" class="st1" width="69.6" height="42.2"></rect><g>	<path class="st2" d="M255.7,266.2c4.3,3.8,12,5.7,23.3,5.7c12.1,0,22.5-4.3,31.1-12.8c1.1-1.1,3.2-3.7,6.5-7.6l25.5,9.1  c-6.2,8.6-10.7,14.3-13.5,17.1c-13.7,13.7-30.2,20.5-49.6,20.5c-19.3,0-35.8-6.8-49.5-20.5C215.8,263.9,209,247.4,209,228  c0-19.4,6.8-35.9,20.5-49.6c13.7-13.7,30.2-20.5,49.5-20.5c16.6,0,31.1,5,43.6,15c2,1.7,4.1,3.6,6,5.5c0.8,0.8,3.2,3.4,7,7.8  l-12.8,12.9L255.7,266.2z M298.3,187.4c-2.9-2.2-9.3-3.3-19.3-3.3c-12.1,0-22.4,4.3-30.9,12.9c-8.6,8.6-12.9,18.9-12.9,31.1  c0,9.9,1.1,16.4,3.3,19.3L298.3,187.4z"></path>	<path class="st2" d="M391.8,185.3c9.5-12.9,21.2-19.6,35.1-20.3v26.5c-9.3,0.5-16.7,3.5-22.1,9c-8.3,8.2-12.6,18-12.9,29.3v65.1  h-25.5V168.2h25.5V185.3z"></path>	<path class="st2" d="M474.3,279.1v58.3h-25.5V168.2h25.5v11.4c12.3-14.4,26.6-21.7,42.9-21.7c19.4,0,35.9,6.8,49.5,20.5  c13.7,13.7,20.5,30.2,20.5,49.5c0,19.4-6.8,35.9-20.5,49.6c-13.7,13.7-30.2,20.5-49.5,20.5C500.9,298.1,486.6,291.8,474.3,279.1z   M474.3,218.2V238c1.6,7.8,5.5,14.8,11.9,21.2c8.5,8.5,18.9,12.8,31,12.8c12.1,0,22.5-4.3,31.1-12.9c8.6-8.6,12.9-18.9,12.9-31.1  c0-12.1-4.3-22.4-12.9-31c-8.6-8.6-18.9-12.9-31.1-12.9c-12.1,0-22.5,4.3-31,12.9C479.8,203.3,475.8,210.4,474.3,218.2z"></path>	<path class="st3" d="M623.8,98v196.9h-11.1V98H623.8z"></path>	<path class="st3" d="M678.4,272.2c10.4,9.5,22.8,14.3,37.2,14.3c15.4,0,28.6-5.5,39.5-16.4c1.4-1.4,2.7-2.8,3.9-4.3l11.7,4.2  c-2.1,3-4.6,5.8-7.3,8.5c-13.2,13.2-29.2,19.8-47.9,19.8c-18.6,0-34.5-6.6-47.7-19.8c-13.2-13.2-19.8-29.2-19.8-47.9  c0-18.6,6.6-34.5,19.8-47.7c13.2-13.2,29.1-19.8,47.7-19.8c16,0,30,4.8,42,14.4c2,1.6,3.9,3.4,5.9,5.4c0.7,0.7,1.4,1.5,2.1,2.2  l-8.4,8.4L678.4,272.2z M749,185.9c-9.6-7.4-20.8-11.1-33.5-11.1c-15.3,0-28.5,5.4-39.4,16.3c-10.9,10.9-16.4,24-16.4,39.4  c0,12.7,3.7,23.9,11.1,33.5L749,185.9z"></path>	<path class="st3" d="M925.3,294.8h-11.1v-24.6c-2.1,2.9-4.5,5.6-7,8.2c-13.2,13.2-29.2,19.8-47.9,19.8c-18.6,0-34.5-6.6-47.7-19.8  c-13.2-13.2-19.8-29.1-19.8-47.7c0-18.7,6.6-34.7,19.8-47.9c13.2-13.2,29.1-19.8,47.7-19.8c18.7,0,34.7,6.6,47.9,19.8  c2.5,2.6,4.9,5.4,7,8.2V174h11.1V294.8z M914.3,241.7v-21.9c-2.1-10.8-7.2-20.3-15.4-28.5c-10.9-10.9-24.1-16.4-39.5-16.4  c-15.4,0-28.6,5.5-39.5,16.4c-10.9,10.9-16.4,24.1-16.4,39.5c0,15.4,5.5,28.6,16.4,39.4c10.9,10.9,24.1,16.3,39.5,16.3  c15.4,0,28.6-5.5,39.5-16.4C907.1,261.9,912.2,252.4,914.3,241.7z"></path>	<path class="st3" d="M972.9,185.1v109.8h-11.1V185.1h-12.3V174h12.3v-32.7c0.5-9.1,4-16.9,10.5-23.5c6.7-6.2,14.5-9.4,23.3-9.4  c4.6,0,9.4,0.9,14.5,2.6l-3.4,9.8c-3.4-1.5-6.8-2.2-10-2.2c-5.8,0-11.3,2.3-16.5,7c-4.6,4.5-7,10-7.3,16.4v32h24.6v11.1H972.9z"></path></g><g>	<path class="st3" d="M72.6,124.4c-4.8,51.1,32.7,96.4,83.8,101.2c15.9,1.5,31.2-1.1,44.9-7c-88.9-8.5-110.8-81.9-111.5-84.2  c38,61.2,85,65.2,120.2,56.2c-1-10.2-3.2-20-6.6-29.3c-5.9-16.5-15.3-31.6-27.4-44.1c-19.6-20.4-46.4-34-76.8-36.9  c-3.4-0.3-6.8-0.5-10.2-0.5C80,92.5,74.2,107.8,72.6,124.4z"></path>	<path class="st3" d="M234,88.5c0,0,20.3,41-14.8,80.6l0.6,2.1c2.3-1.2,4.6-2.7,6.8-4.2c28.2-20.7,34.3-60.3,13.6-88.4  c-6.7-9.2-15.4-16-25.1-20.4c-2,1.2-3.9,2.5-5.8,3.9c-14.5,10.6-24.5,24.9-29.8,40.7c15.3,14,27.4,31.5,34.9,51.3  C228.9,142.3,240,122.4,234,88.5z"></path></g></svg>